<svg xmlns="http://www.w3.org/2000/svg" viewBox="0 0 36.58 28.73"><defs><style>.cls-1{fill:#fff;}</style></defs><g id="Capa_2" data-name="Capa 2"><g id="ELEMENTS"><path class="cls-1" d="M31.3,0h-26A5.29,5.29,0,0,0,0,5.28V23.45a5.29,5.29,0,0,0,5.28,5.28h26a5.29,5.29,0,0,0,5.28-5.28V5.28A5.29,5.29,0,0,0,31.3,0Zm0,2.52a2.57,2.57,0,0,1,.62.08L21,15.05a3.55,3.55,0,0,1-5.32,0L4.65,2.6a2.65,2.65,0,0,1,.63-.08Zm2.75,20.93a2.76,2.76,0,0,1-2.75,2.76h-26a2.77,2.77,0,0,1-2.76-2.76V5.28a2.76,2.76,0,0,1,.21-1l11,12.48a6.05,6.05,0,0,0,9.1,0l11-12.48a2.58,2.58,0,0,1,.21,1Z"/></g></g></svg>