<svg xmlns="http://www.w3.org/2000/svg" viewBox="0 0 26.79 34.45"><defs><style>.cls-1{fill:#fff;}</style></defs><g id="Capa_2" data-name="Capa 2"><g id="ELEMENTS"><path class="cls-1" d="M13.39,34.45h0a1.15,1.15,0,0,1-.87-.38C12,33.52,0,20.52,0,13.39a13.4,13.4,0,0,1,26.79,0c0,7.13-12,20.13-12.52,20.68A1.17,1.17,0,0,1,13.39,34.45Zm0-32.05a11,11,0,0,0-11,11c0,4.73,7.26,13.89,11,18.08,3.73-4.19,11-13.35,11-18.08A11,11,0,0,0,13.39,2.4Z"/><path class="cls-1" d="M13.39,18.84a6,6,0,1,1,6-6A6,6,0,0,1,13.39,18.84Zm0-9.67A3.64,3.64,0,1,0,17,12.81,3.64,3.64,0,0,0,13.39,9.17Z"/></g></g></svg>