<svg xmlns="http://www.w3.org/2000/svg" viewBox="0 0 34.88 34.95"><defs><style>.cls-1{fill:none;stroke:#fff;stroke-miterlimit:10;stroke-width:3px;}</style></defs><g id="Capa_2" data-name="Capa 2"><g id="ELEMENTS"><path class="cls-1" d="M27.78,21.88s-1.26-1.52-2.66-.47c-1,.78-2.91,2.5-3.35,2.92a37.12,37.12,0,0,1-5-3.18,25.81,25.81,0,0,1-5.52-6.61l-.72-1.36c.25-.27,2.16-2.31,3-3.43,1-1.39-.47-2.65-.47-2.65S8.82,2.85,7.85,2a2.07,2.07,0,0,0-2.08-.38c-2,1.32-4.14,2.46-4.27,8,0,5.15,3.9,10.46,8.13,14.57,4.23,4.64,10,9.29,15.66,9.29s6.64-2.24,8-4.27a2.09,2.09,0,0,0-.38-2.09c-.84-1-5.09-5.21-5.09-5.21Z"/></g></g></svg>