<svg xmlns="http://www.w3.org/2000/svg" viewBox="0 0 80 79.78"><defs><style>.cls-1{fill:#fff;}</style></defs><g id="Capa_2" data-name="Capa 2"><g id="Graphic_Elements" data-name="Graphic Elements"><path class="cls-1" d="M44.18,33.69c1.11-1.25,2-2.51,3.16-3.58a17.35,17.35,0,0,1,12.47-4.93,29.22,29.22,0,0,1,7.85,1c5.86,1.69,9.26,5.73,10.89,11.45A48.34,48.34,0,0,1,80,50.71c0,9.32,0,18.65,0,28,0,.87-.24,1.1-1.1,1.1q-7.22-.06-14.41,0c-.85,0-1-.26-1-1.06q0-13.31,0-26.61a23.78,23.78,0,0,0-.78-6.61c-1.15-4-4-6-8.17-5.79-5.69.3-8.66,3.12-9.38,8.91a32.27,32.27,0,0,0-.26,4.16c0,8.63,0,17.26,0,25.89,0,.86-.22,1.12-1.1,1.11-4.83,0-9.67,0-14.51,0-.78,0-1-.2-1-1q0-25.64,0-51.25c0-.85.27-1.05,1.07-1,4.6,0,9.19,0,13.79,0,.84,0,1.06.26,1,1.06C44.15,29.6,44.18,31.65,44.18,33.69Z"/><path class="cls-1" d="M17.86,53.21c0,8.46,0,16.91,0,25.36,0,.94-.23,1.22-1.2,1.21-4.8,0-9.61,0-14.41,0-.77,0-1-.18-1-1q0-25.67,0-51.33c0-.71.18-1,.93-1,4.87,0,9.74,0,14.61,0,.94,0,1.07.36,1.06,1.16Q17.84,40.43,17.86,53.21Z"/><path class="cls-1" d="M19.18,9.54A9.59,9.59,0,1,1,9.61,0,9.61,9.61,0,0,1,19.18,9.54Z"/></g></g></svg>